<svg id="Layer_1" viewBox="0 0 1000 1000" xmlns="http://www.w3.org/2000/svg" data-name="Layer 1"><path d="m562.37 916h-124.74a16 16 0 0 1 -16-16v-474.88a16 16 0 0 1 16-16h124.74a16 16 0 0 1 16 16v474.88a16 16 0 0 1 -16 16zm-108.74-32h92.74v-442.88h-92.74z" fill="#56060d"/><path d="m575.63 348.76a16 16 0 0 1 -7.45-1.83l-68.18-35.85-68.18 35.85a16 16 0 0 1 -23.22-16.87l13-75.93-55.16-53.76a16 16 0 0 1 8.87-27.3l76.25-11.07 34.09-69.08a16 16 0 0 1 28.7 0l34.09 69.08 76.23 11.07a16 16 0 0 1 8.87 27.3l-55.16 53.76 13 75.93a16 16 0 0 1 -15.77 18.7zm-75.63-71.76a16.07 16.07 0 0 1 7.45 1.84l46.93 24.68-9-52.27a16 16 0 0 1 4.6-14.16l38-37-52.48-7.62a16 16 0 0 1 -12-8.76l-23.5-47.56-23.47 47.55a16 16 0 0 1 -12 8.76l-52.53 7.62 38 37a16 16 0 0 1 4.6 14.16l-9 52.27 46.93-24.68a16.07 16.07 0 0 1 7.47-1.83z" fill="#ec2e18"/><path d="m321.15 916h-124.73a16 16 0 0 1 -16-16v-226.19a16 16 0 0 1 16-16h124.73a16 16 0 0 1 16 16v226.19a16 16 0 0 1 -16 16zm-108.73-32h92.73v-194.19h-92.73z" fill="#56060d"/><path d="m334.41 597.46a16 16 0 0 1 -7.44-1.84l-68.18-35.85-68.19 35.85a16 16 0 0 1 -23.21-16.87l13-75.92-55.16-53.77a16 16 0 0 1 8.86-27.29l76.24-11.08 34.09-69.08a16 16 0 0 1 28.69 0l34.1 69.08 76.23 11.08a16 16 0 0 1 8.87 27.29l-55.17 53.77 13 75.92a16 16 0 0 1 -15.78 18.71zm-75.62-71.77a16.06 16.06 0 0 1 7.44 1.84l46.94 24.68-9-52.26a16 16 0 0 1 4.6-14.17l38-37-52.47-7.62a16 16 0 0 1 -12.05-8.76l-23.46-47.55-23.47 47.55a16 16 0 0 1 -12 8.76l-52.47 7.62 38 37a16 16 0 0 1 4.6 14.17l-9 52.26 46.93-24.68a16.07 16.07 0 0 1 7.41-1.84z" fill="#ec2e18"/><path d="m803.58 916h-124.73a16 16 0 0 1 -16-16v-226.19a16 16 0 0 1 16-16h124.73a16 16 0 0 1 16 16v226.19a16 16 0 0 1 -16 16zm-108.73-32h92.73v-194.19h-92.73z" fill="#56060d"/><path d="m816.84 597.46a16 16 0 0 1 -7.44-1.84l-68.19-35.85-68.21 35.85a16 16 0 0 1 -23.22-16.87l13-75.92-55.17-53.77a16 16 0 0 1 8.87-27.29l76.23-11.08 34.1-69.08a16 16 0 0 1 28.69 0l34.09 69.08 76.24 11.08a16 16 0 0 1 8.86 27.29l-55.16 53.77 13 75.92a16 16 0 0 1 -15.77 18.71zm-75.63-71.77a16.07 16.07 0 0 1 7.45 1.84l46.93 24.68-9-52.26a16 16 0 0 1 4.6-14.17l38-37-52.47-7.62a16 16 0 0 1 -12.05-8.76l-23.47-47.55-23.46 47.55a16 16 0 0 1 -12 8.76l-52.47 7.62 38 37a16 16 0 0 1 4.53 14.22l-9 52.26 46.94-24.68a16.06 16.06 0 0 1 7.47-1.89z" fill="#ec2e18"/></svg>