<svg id="Layer_1" viewBox="0 0 1000 1000" xmlns="http://www.w3.org/2000/svg" data-name="Layer 1"><g fill="#ea3125"><path d="m517.36 775.13a16 16 0 0 1 -15.78-13.48c-.61-3.82-1.35-8.87-2.2-14.7-2.49-17-5.9-40.34-10.18-61.45-3-14.82-5.63-24.39-7.68-30.51-35.95 24.86-72.1 20.93-97.19 12.48a16 16 0 0 1 -10.81-13.54c-.48-4.67.34-9.44 1.37-15.48 3.94-23.1 4.7-41.68-23.55-53.09-2.35-1-4.75-1.87-7.15-2.8s-4.67-1.8-7-2.73a16 16 0 1 1 11.89-29.71q3.3 1.32 6.62 2.58c2.55 1 5.11 2 7.62 3 23.33 9.42 37.89 24.64 43.31 45.25 3.87 14.76 2.08 29.12.37 39.52 36.16 7 57.88-12.26 65.53-19 2.78-2.46 8.54-7.58 17.08-5.28 18.79 5.01 27.69 32.14 41.39 126.13.84 5.72 1.56 10.67 2.14 14.28a16.05 16.05 0 0 1 -15.82 18.53z"/><path d="m500.77 558.5a33.52 33.52 0 0 1 -6.77-.69c-16.67-3.5-25-18.11-29.05-25.13l-11.78-20.57c-3.8 2-8.45 4.33-14.14 5.15-13.14 1.9-25.3-4.78-36.13-19.84l-12.4-17.22a16 16 0 1 1 26-18.69l12.4 17.22c3.26 4.53 5.24 6.13 6.09 6.67 1.06-.42 2.76-1.32 4-2 6.12-3.24 17.52-9.27 29.66-2.13 5.73 3.38 8.59 8.36 10.12 11l14 24.44c1.29 2.26 5.24 9.16 7.83 9.7 1.1.24 4-1 5.88-3.38 2.65-3.33 4.31-8.19 6.22-13.81.29-.87.59-1.73.88-2.58 1.24-3.55 4.49-12.93 14.22-17.44 5.09-2.34 15.53-4.86 28.84 4.21a141.83 141.83 0 0 1 12.2 9.64 88.79 88.79 0 0 0 11.68 9c14.06 8.36 35.78 5.86 47.44-5.46a16 16 0 1 1 22.3 22.94c-21.91 21.3-59.73 25.71-86.1 10a116.57 116.57 0 0 1 -16.16-12.07c-2.07-1.77-4.07-3.47-6-5-2.31 6.66-5.16 13.9-10.52 20.62-7.84 9.76-19.35 15.42-30.71 15.42z"/><path d="m613 729.91a16 16 0 0 1 -12.49-6 137.5 137.5 0 0 0 -10.31-11c-10.14-10.05-21.63-21.44-25.48-39.88-1.42-6.66-1-12.49 1.19-17.76 5.28-12.59 17.81-15.2 21.93-16.06l6.63-1.38c-10.34-15.36-4.3-37.1 7.26-48.48 9.13-9 21.91-13.61 37-13.32 4.09.07 7.92.44 11.62.79s7.21.68 10.43.67a16 16 0 1 1 .32 32 125.55 125.55 0 0 1 -13.81-.8c-3.24-.31-6.29-.61-9.15-.66-9.59-.18-12.9 3.07-14 4.13-2.13 2.1-3.29 6.26-3 8 .32.33.93.89 1.39 1.33a40.34 40.34 0 0 1 6 6.64c6.21 9 7.08 23.46-2.18 32.28a24.32 24.32 0 0 1 -12.35 6l-17 3.59c2.68 7.31 8.53 13.12 15.69 20.21a162.5 162.5 0 0 1 12.74 13.67 16 16 0 0 1 -12.47 26z"/><path d="m500 776c-97.47 0-176.78-79.3-176.78-176.77s79.31-176.75 176.78-176.75 176.78 79.3 176.78 176.78-79.31 176.74-176.78 176.74zm0-321.55c-79.83 0-144.78 64.95-144.78 144.78s64.95 144.77 144.78 144.77 144.78-64.94 144.78-144.77-64.95-144.75-144.78-144.75z"/><path d="m500 264.18a16 16 0 0 1 -10.55-4c-1.72-1.51-42.21-37.54-42.21-84s40.49-82.49 42.21-84a16 16 0 0 1 21.1 0c1.72 1.51 42.21 37.54 42.21 84s-40.49 82.49-42.21 84a16 16 0 0 1 -10.55 4zm0-136.6c-9.09 11.09-20.76 29.11-20.76 48.63s11.67 37.54 20.76 48.62c9.09-11.08 20.76-29.1 20.76-48.62s-11.67-37.54-20.76-48.63z"/><path d="m503.17 357.81c-2.22 0-3.59-.06-3.91-.08a16 16 0 0 1 -15.18-15.13c-.12-2.26-2.55-55.68 31.19-88.47 33.52-32.59 88-30.25 90.3-30.14a16 16 0 0 1 15.18 15.13c.12 2.26 2.54 55.68-31.19 88.48-28.78 27.97-72.99 30.21-86.39 30.21zm84.75-101.08c-14.61 1.63-36 6.44-50.35 20.34-14 13.6-18.94 33.88-20.67 47.92 14.62-1.63 36.05-6.43 50.35-20.34 14-13.6 18.95-33.87 20.67-47.92z"/><path d="m496.83 357.81c-13.4 0-57.61-2.24-86.39-30.21-33.73-32.8-31.31-86.22-31.19-88.48a16 16 0 0 1 15.18-15.12c2.31-.11 56.77-2.45 90.3 30.14 33.74 32.79 31.31 86.21 31.19 88.47a16 16 0 0 1 -15.18 15.13c-.32.01-1.74.07-3.91.07zm-84.75-101.06c1.73 14 6.68 34.29 20.67 47.88 14.25 13.84 35.7 18.67 50.35 20.37-1.73-14-6.69-34.28-20.67-47.88-14.22-13.87-35.7-18.69-50.35-20.35z"/><path d="m500 454.48a16 16 0 0 1 -16-16v-190.3a16 16 0 0 1 32 0v190.3a16 16 0 0 1 -16 16z"/></g><path d="m841.28 861.54h-138.48a16 16 0 0 1 0-32h119.3c-.83-12.1 0-26.83 2.45-44.09 2.45-17.45 15.45-52.73 16.93-56.7.11-.29.23-.59.36-.87l33.16-75.29c10.9-31.92 9.92-59 7.16-76.07-2.56-15.85-10.54-39.53-13.54-48.44l-.55-1.63c-33.4-99.7-132.15-190.78-151.7-208.11-9.63-1.13-20.71-.79-26.32 5.18-6.18 6.58-5.77 19.55-4.79 26.33l89.26 123.78a16 16 0 0 1 -25.95 18.72l-91.36-126.68a16.11 16.11 0 0 1 -2.58-5.61c-.88-3.7-8.11-36.72 11.94-58.28 12.95-13.92 32.92-18.76 59.36-14.4a16 16 0 0 1 7.71 3.56c1.28 1.08 31.59 26.79 67.1 67.27 48 54.75 80.87 107.93 97.67 158.06l.53 1.59c3.24 9.6 11.83 35.09 14.82 53.56 3.35 20.85 4.57 53.77-8.73 92.23-.14.42-.3.82-.48 1.23l-33.23 75.45c-3.79 10.25-13.42 37.86-15.09 49.63-4.63 32.47-1.59 45.59 0 49.79a16 16 0 0 1 -14.92 21.79z" fill="#531115"/><path d="m702.1 861.49a16 16 0 0 1 -14-8.25c-10.66-19.24-16-42.3-15.82-68.53.17-24 13.18-56.37 23-78.68l.85-2c11.58-26.74 12.94-48.53 13-50.66v-132.79a53.62 53.62 0 0 1 107.24 0v133.15a16 16 0 0 1 -32 0v-133.15a21.62 21.62 0 0 0 -43.24 0v133.59c0 1.15-.94 28.6-15.67 62.63l-.91 2.07c-13.36 30.48-20.18 52.7-20.27 66-.13 20.66 3.85 38.43 11.82 52.82a16 16 0 0 1 -14 23.75z" fill="#531115"/><path d="m877.81 911.76h-217.25a16 16 0 0 1 -16-16v-50.27a16 16 0 0 1 16-16h217.25a16 16 0 0 1 16 16v50.27a16 16 0 0 1 -16 16zm-201.25-32h185.25v-18.27h-185.25z" fill="#531115"/><path d="m297.2 861.54h-138.48a16 16 0 0 1 -15-21.68c1.55-4.1 4.67-17.17 0-49.88-1.67-11.78-11.31-39.39-15.09-49.64l-33.18-75.46c-.18-.4-.34-.81-.48-1.22-13.3-38.48-12.08-71.39-8.72-92.23 3-18.54 11.6-44.06 14.84-53.68l.51-1.49c16.79-50.12 49.65-103.3 97.66-158 35.5-40.48 65.82-66.19 67.09-67.26a16 16 0 0 1 7.71-3.56c26.45-4.37 46.42.47 59.37 14.39 20.05 21.56 12.83 54.58 11.94 58.28a16 16 0 0 1 -2.58 5.61l-91.34 126.61a16 16 0 0 1 -25.95-18.72l89.25-123.77c1-6.71 1.39-19.72-4.8-26.32-5.61-6-16.69-6.31-26.33-5.18-19.53 17.32-118.29 108.4-151.68 208.1l-.53 1.54c-3 8.93-11 32.63-13.57 48.55-2.76 17.1-3.74 44.14 7.16 76.07l33.16 75.28c.12.29.24.58.35.88 1.47 4 14.45 39.22 16.94 56.71 2.46 17.24 3.27 32 2.45 44.07h119.3a16 16 0 1 1 0 32z" fill="#531115"/><path d="m297.9 861.49a16 16 0 0 1 -14-23.75c8-14.38 11.94-32.16 11.82-52.83-.1-13.34-6.91-35.55-20.27-66l-.9-2.07c-14.74-34-15.65-61.49-15.68-62.64 0-.15 0-.29 0-.44v-133.18a21.62 21.62 0 0 0 -43.23 0v133.15a16 16 0 0 1 -32 0v-133.15a53.62 53.62 0 0 1 107.23 0v132.85c.1 1.88 1.41 23.76 13.05 50.65l.85 2c9.78 22.3 22.79 54.73 23 78.66.16 26.24-5.17 49.3-15.83 68.54a16 16 0 0 1 -14.04 8.21z" fill="#531115"/><path d="m339.44 911.76h-217.26a16 16 0 0 1 -16-16v-50.27a16 16 0 0 1 16-16h217.26a16 16 0 0 1 16 16v50.27a16 16 0 0 1 -16 16zm-201.26-32h185.26v-18.27h-185.26z" fill="#531115"/></svg>