<svg id="Layer_1" viewBox="0 0 1000 1000" xmlns="http://www.w3.org/2000/svg" data-name="Layer 1"><path d="m761.25 326.94a16 16 0 0 1 -8-2.15l-39.25-22.67a16 16 0 0 1 -8-13.85v-45.36a16 16 0 0 1 8-13.86l39.27-22.67a16 16 0 0 1 16 0l39.27 22.67a16 16 0 0 1 8 13.86v45.36a16 16 0 0 1 -8 13.85l-39.27 22.67a16 16 0 0 1 -8.02 2.15zm-23.25-47.94 23.27 13.43 23.25-13.43v-26.85l-23.27-13.43-23.25 13.43z" fill="#ec2e18"/><path d="m791.52 412.42h-60.52a16 16 0 0 1 -16-16v-19.74a121.12 121.12 0 0 1 -26.79-15.48l-17.12 9.88a16 16 0 0 1 -21.85-5.85l-30.28-52.44a16 16 0 0 1 5.86-21.85l17.12-9.89a121.29 121.29 0 0 1 0-30.93l-17.12-9.89a16 16 0 0 1 -5.86-21.86l30.26-52.37a16 16 0 0 1 21.85-5.85l17.13 9.85a121.45 121.45 0 0 1 26.8-15.5v-19.76a16 16 0 0 1 16-16h60.54a16 16 0 0 1 16 16v19.76a121.45 121.45 0 0 1 26.76 15.5l17.13-9.88a16 16 0 0 1 21.85 5.88l30.28 52.42a16 16 0 0 1 -5.85 21.86l-17.12 9.89a122.6 122.6 0 0 1 1 15.46 120.8 120.8 0 0 1 -1 15.47l17.13 9.89a16 16 0 0 1 5.85 21.85l-30.28 52.44a16 16 0 0 1 -21.85 5.85l-17.12-9.88a121.12 121.12 0 0 1 -26.79 15.48v19.74a16 16 0 0 1 -16.01 15.95zm-44.54-32h28.54v-15a16 16 0 0 1 11.38-15.32 88.39 88.39 0 0 0 34.73-20.08 16 16 0 0 1 19-2.18l13 7.5 14.28-24.72-13-7.5a16 16 0 0 1 -7.58-17.49 89.14 89.14 0 0 0 0-40.15 16 16 0 0 1 7.53-17.48l13-7.5-14.28-24.71-13 7.5a16 16 0 0 1 -18.94-2.18 88.71 88.71 0 0 0 -34.75-20.08 16 16 0 0 1 -11.37-15.32v-15h-28.52v15a16 16 0 0 1 -11.36 15.32 88.75 88.75 0 0 0 -34.76 20.08 16 16 0 0 1 -18.94 2.18l-13-7.5-14.27 24.71 13 7.5a16 16 0 0 1 7.58 17.49 89.14 89.14 0 0 0 0 40.15 16 16 0 0 1 -7.58 17.49l-13 7.5 14.28 24.72 13-7.5a16 16 0 0 1 19 2.18 88.36 88.36 0 0 0 34.74 20.08 16 16 0 0 1 11.31 15.34z" fill="#ec2e18"/><g fill="#56060d"><path d="m787.84 916h-628.08a16 16 0 0 1 -16-16v-191.39a16 16 0 0 1 16-16h628.08a16 16 0 0 1 16 16v191.39a16 16 0 0 1 -16 16zm-612.08-32h596.08v-159.39h-596.08z"/><path d="m837.3 724.61h-727a16 16 0 0 1 -16-16v-68.4a16 16 0 0 1 16-16h727a16 16 0 0 1 16 16v68.4a16 16 0 0 1 -16 16zm-711-32h695v-36.4h-695z"/><path d="m676.92 656.21h-406.24a16 16 0 0 1 -16-16v-162c0-78 63.49-141.52 141.52-141.52h155.2c78 0 141.52 63.48 141.52 141.52v162a16 16 0 0 1 -16 16zm-390.24-32h374.24v-146a109.64 109.64 0 0 0 -109.52-109.48h-155.2a109.64 109.64 0 0 0 -109.52 109.52z"/><path d="m676.92 601.87h-406.24a16 16 0 1 1 0-32h406.24a16 16 0 0 1 0 32z"/><path d="m606.21 601.87h-264.82a16 16 0 0 1 -16-15.29l-6.76-152a37.69 37.69 0 0 1 10.22-27.66 35.19 35.19 0 0 1 25.65-11h238.58a35.19 35.19 0 0 1 25.65 11 37.69 37.69 0 0 1 10.27 27.64l-6.76 152a16 16 0 0 1 -16.03 15.31zm-249.52-32h234.22l6.09-136.73a5.48 5.48 0 0 0 -1.37-4.13 3.38 3.38 0 0 0 -2.53-1.09h-238.58a3.36 3.36 0 0 0 -2.52 1.08 5.44 5.44 0 0 0 -1.37 4.12z"/><path d="m473.8 311.49a113.75 113.75 0 1 1 113.75-113.74 113.87 113.87 0 0 1 -113.75 113.74zm0-195.49a81.75 81.75 0 1 0 81.75 81.75 81.85 81.85 0 0 0 -81.75-81.75z"/><path d="m531.65 219.53c-33.9 0-58.57-11.88-72.95-21.47-9.29 8.71-24.06 16-47.52 17.63a161.53 161.53 0 0 1 -38.25-2.25 16 16 0 0 1 6.22-31.39c13.41 2.62 53.55 5.82 61.79-13.21a16 16 0 0 1 11.94-9.5 15.77 15.77 0 0 1 14.33 4.83c2.07 2.09 36.82 36 100 18.17a16 16 0 1 1 8.67 30.81 162.84 162.84 0 0 1 -44.23 6.38z"/></g></svg>