<svg id="Layer_1" viewBox="0 0 1000 1000" xmlns="http://www.w3.org/2000/svg" data-name="Layer 1"><path d="m614.52 916a16 16 0 0 1 -7.44-1.84l-107.08-56.29-107.08 56.29a16 16 0 0 1 -23.21-16.87l20.45-119.23-86.63-84.44a16 16 0 0 1 8.87-27.29l119.71-17.4 53.54-108.48a16 16 0 0 1 28.7 0l53.54 108.48 119.71 17.4a16 16 0 0 1 8.87 27.29l-86.63 84.44 20.45 119.23a16 16 0 0 1 -15.77 18.71zm-114.52-92.21a16 16 0 0 1 7.45 1.84l85.82 45.12-16.39-95.57a16 16 0 0 1 4.6-14.16l69.44-67.69-96-13.94a16 16 0 0 1 -12.05-8.75l-42.91-87-42.91 87a16 16 0 0 1 -12 8.75l-96 13.94 69.47 67.67a16 16 0 0 1 4.6 14.16l-16.39 95.57 85.82-45.12a16 16 0 0 1 7.45-1.82z" fill="#ec2e18"/><g fill="#56060d"><path d="m731.19 395h-462.38a16 16 0 0 1 -16-16v-279a16 16 0 0 1 16-16h462.38a16 16 0 0 1 16 16v279a16 16 0 0 1 -16 16zm-446.38-32h430.38v-247h-430.38z"/><path d="m361.28 395a16 16 0 0 1 -16-16v-279a16 16 0 0 1 32 0v279a16 16 0 0 1 -16 16z"/><path d="m453.76 395a16 16 0 0 1 -16-16v-279a16 16 0 0 1 32 0v279a16 16 0 0 1 -16 16z"/><path d="m546.24 395a16 16 0 0 1 -16-16v-279a16 16 0 0 1 32 0v279a16 16 0 0 1 -16 16z"/><path d="m638.72 395a16 16 0 0 1 -16-16v-279a16 16 0 0 1 32 0v279a16 16 0 0 1 -16 16z"/><path d="m500 464.76a16 16 0 0 1 -16-16v-69.76a16 16 0 0 1 32 0v69.75a16 16 0 0 1 -16 16.01z"/><path d="m500 563.53a65.39 65.39 0 1 1 65.39-65.39 65.47 65.47 0 0 1 -65.39 65.39zm0-98.77a33.39 33.39 0 1 0 33.39 33.38 33.43 33.43 0 0 0 -33.39-33.38z"/></g></svg>