<svg id="Layer_1" viewBox="0 0 1000 1000" xmlns="http://www.w3.org/2000/svg" data-name="Layer 1"><path d="m577.5 528.8h-184.84a16 16 0 0 1 -16-16v-64.61a75.37 75.37 0 0 1 75.28-75.29h66.27a75.38 75.38 0 0 1 75.29 75.29v64.61a16 16 0 0 1 -16 16zm-168.84-32h152.84v-48.61a43.34 43.34 0 0 0 -43.29-43.29h-66.27a43.34 43.34 0 0 0 -43.28 43.29z" fill="#ec2e18"/><path d="m485.08 356.39a62.26 62.26 0 1 1 62.39-62.26 62.4 62.4 0 0 1 -62.39 62.26zm0-92.52a30.26 30.26 0 1 0 30.39 30.26 30.36 30.36 0 0 0 -30.39-30.26z" fill="#ec2e18"/><g fill="#56060d"><path d="m284.84 473h-184.84a16 16 0 0 1 -16-16v-64.09a75.21 75.21 0 0 1 75.12-75.12h66.6a75.21 75.21 0 0 1 75.12 75.12v64.09a16 16 0 0 1 -16 16zm-168.84-32h152.84v-48.09a43.17 43.17 0 0 0 -43.12-43.12h-66.6a43.16 43.16 0 0 0 -43.12 43.12z"/><path d="m192.42 300.94a62.26 62.26 0 1 1 62.39-62.26 62.4 62.4 0 0 1 -62.39 62.26zm0-92.52a30.26 30.26 0 1 0 30.39 30.26 30.35 30.35 0 0 0 -30.39-30.26z"/><path d="m870.16 469.55h-184.84a16 16 0 0 1 -16-16v-64.1a75.21 75.21 0 0 1 75.12-75.12h66.56a75.21 75.21 0 0 1 75.12 75.12v64.1a16 16 0 0 1 -15.96 16zm-168.84-32h152.84v-48.1a43.17 43.17 0 0 0 -43.16-43.12h-66.6a43.17 43.17 0 0 0 -43.12 43.12z"/><path d="m777.74 300.84a62.21 62.21 0 1 1 62.26-62.21 62.28 62.28 0 0 1 -62.26 62.21zm0-92.42a30.21 30.21 0 1 0 30.26 30.21 30.24 30.24 0 0 0 -30.26-30.21z"/><path d="m485.08 608.9a216.24 216.24 0 1 1 152.92-63.33 214.85 214.85 0 0 1 -152.92 63.33zm0-400.48a184.23 184.23 0 1 0 130.28 54 183 183 0 0 0 -130.28-54z"/><path d="m847.39 823.58a68.16 68.16 0 0 1 -48.51-20.09l-174.49-174.49a16 16 0 0 1 0-22.63l74.4-74.4a16 16 0 0 1 22.63 0l174.48 174.49a68.61 68.61 0 0 1 -48.51 117.12zm-189.06-205.89 163.17 163.17a36.61 36.61 0 0 0 51.78-51.78l-163.17-163.17z"/><path d="m651.33 618.06a16 16 0 0 1 -11.33-4.68l-47.87-47.87a16 16 0 0 1 22.63-22.62l47.86 47.86a16 16 0 0 1 -11.31 27.31z"/><path d="m694.48 574.91a15.94 15.94 0 0 1 -11.31-4.68l-47.87-47.87a16 16 0 0 1 22.63-22.62l47.86 47.86a16 16 0 0 1 -11.31 27.31z"/></g></svg>